<?xml version="1.0" standalone="no"?>
<!DOCTYPE svg PUBLIC "-//W3C//DTD SVG 20010904//EN"
 "http://www.w3.org/TR/2001/REC-SVG-20010904/DTD/svg10.dtd">
<svg version="1.0" xmlns="http://www.w3.org/2000/svg"
 width="260.000000pt" height="371.000000pt" viewBox="0 0 260.000000 371.000000"
 preserveAspectRatio="xMidYMid meet">
<metadata>
Created by potrace 1.16, written by Peter Selinger 2001-2019
</metadata>
<g transform="translate(0.000000,371.000000) scale(0.100000,-0.100000)"
fill="#000000" stroke="none">
<path d="M1086 3654 c-718 -135 -1162 -830 -981 -1538 78 -309 292 -592 567
-752 l68 -39 0 -355 0 -355 283 -283 282 -282 278 278 278 278 -1 355 0 355
96 60 c114 70 264 207 344 315 109 146 190 336 225 524 26 136 17 396 -18 525
-122 452 -451 778 -905 897 -124 32 -389 42 -516 17z m334 -74 c280 -30 526
-152 723 -359 181 -190 285 -421 312 -693 l7 -68 -286 0 -286 0 0 33 c-1 164
-151 380 -320 459 -98 46 -166 62 -270 61 -281 -1 -519 -203 -571 -487 l-12
-66 -284 0 -283 0 0 34 c0 44 27 197 47 265 109 377 425 685 805 786 155 41
267 51 418 35z m-694 -1237 c27 -125 54 -189 115 -270 l39 -52 0 -311 0 -310
-45 0 c-56 0 -114 28 -220 108 -256 190 -423 482 -460 805 l-6 57 285 0 286 0
6 -27z m1730 5 c-3 -13 -8 -48 -11 -78 -17 -152 -86 -334 -181 -477 -131 -197
-374 -393 -487 -393 l-47 0 0 307 0 306 39 51 c52 67 100 170 114 246 l12 60
282 0 283 0 -4 -22z m-1418 -441 c163 -85 367 -87 534 -3 l68 34 0 -269 0
-269 -342 0 -341 0 6 137 c4 75 7 197 7 270 0 74 3 133 8 131 4 -2 31 -16 60
-31z m472 -1524 c-107 -109 -197 -199 -200 -200 -3 -2 -95 87 -205 197 l-200
200 400 0 399 0 -194 -197z"/>
</g>
</svg>
